<svg xmlns="http://www.w3.org/2000/svg" viewBox="0 0 64 64" fill="none">
  <title>clover</title>
  <g fill="none" stroke="none">
    <path d="M32 36.5c3.866-5.196 9.733-8.5 14.5-8.5 5 0 9 4 9 9 0 4.967-3.5 12-9 12-6.833 0-11.467-4.833-14.5-12.5z" fill="#16a34a"/>
    <path d="M32 36.5c-3.866-5.196-9.733-8.5-14.5-8.5-5 0-9 4-9 9 0 4.967 3.5 12 9 12 6.833 0 11.467-4.833 14.5-12.5z" fill="#059669"/>
    <path d="M36.5 32c5.196-3.866 8.5-9.733 8.5-14.5 0-5-4-9-9-9-4.967 0-12 3.5-12 9 0 6.833 4.833 11.467 12.5 14.5z" fill="#10b981"/>
    <path d="M27.5 32c-5.196-3.866-8.5-9.733-8.5-14.5 0-5 4-9 9-9 4.967 0 12 3.5 12 9 0 6.833-4.833 11.467-12.5 14.5z" fill="#059669"/>
    <circle cx="32" cy="32" r="4" fill="#064e3b"/>
  </g>
</svg>
